<svg width="246" height="124" viewBox="0 0 246 124" fill="none" xmlns="http://www.w3.org/2000/svg">
<g filter="url(#filter0_dd)">
<g clip-path="url(#clip0)">
<path d="M93.4989 106.266L91.7091 111.869H77.1325C77.1831 111.7 77.2377 111.519 77.2961 111.325C77.6833 110.038 78.2365 108.203 78.9006 106.004C80.2286 101.606 81.9995 95.7497 83.7704 89.8959C85.5412 84.0422 87.3121 78.1912 88.6403 73.8036L90.2452 68.5023L90.6637 67.1199H114.85L115.282 68.5152C115.68 69.797 116.247 71.6281 116.928 73.8254C118.291 78.2201 120.108 84.0797 121.928 89.9394C123.748 95.7989 125.572 101.659 126.945 106.055C127.632 108.253 128.207 110.086 128.613 111.37C128.669 111.547 128.722 111.713 128.771 111.869H114.5L112.75 106.392C112.654 105.887 112.345 105.505 112.004 105.278C111.637 105.033 111.242 104.96 110.932 104.96H95.2776C94.9105 104.96 94.4975 105.063 94.1329 105.354C93.8219 105.603 93.6604 105.903 93.5861 106.052L93.5342 106.156L93.4989 106.266ZM101.581 80.367L101.559 80.4202L101.542 80.4749L102.973 80.9241C101.542 80.4749 101.542 80.4749 101.542 80.475L101.542 80.4754L101.542 80.4771L101.54 80.4836L101.531 80.5093L101.5 80.6095L101.381 80.9901L100.955 82.3488C100.602 83.4735 100.132 84.9742 99.6616 86.4778C99.1914 87.9811 98.721 89.4881 98.368 90.6252C98.1916 91.1934 98.0439 91.6709 97.9402 92.0099C97.8885 92.1788 97.8467 92.3164 97.8175 92.4147C97.8031 92.4629 97.7901 92.5073 97.78 92.5431C97.7781 92.5498 97.7759 92.5577 97.7735 92.5664C97.77 92.5792 97.7661 92.5938 97.7623 92.6089C97.7594 92.6202 97.7533 92.6443 97.747 92.6737C97.7439 92.6879 97.7382 92.7155 97.7326 92.7502L97.7322 92.7521C97.729 92.7715 97.713 92.8692 97.713 92.9925C97.713 93.4385 97.8566 93.898 98.1492 94.2742C98.4544 94.6665 98.9727 95.0172 99.6502 95.0172H106.646C107.324 95.0172 107.842 94.6665 108.147 94.2742C108.44 93.898 108.584 93.4385 108.584 92.9925C108.584 92.8692 108.568 92.7716 108.564 92.7522L108.564 92.7502C108.558 92.7155 108.553 92.6879 108.55 92.6737C108.543 92.6443 108.537 92.6202 108.534 92.6089C108.528 92.5837 108.521 92.5597 108.517 92.5431C108.506 92.5073 108.493 92.4629 108.479 92.4147C108.45 92.3164 108.408 92.1788 108.356 92.0098C108.253 91.6709 108.105 91.1934 107.929 90.6252C107.576 89.4881 107.105 87.9811 106.635 86.4778C106.165 84.9742 105.695 83.4735 105.342 82.3488L104.916 80.9901L104.797 80.6095L104.778 80.5512C104.763 80.4768 104.749 80.4058 104.736 80.3459L104.735 80.3435C104.721 80.2821 104.689 80.135 104.628 79.9844C104.568 79.8324 104.375 79.4038 103.871 79.152C103.645 79.0389 103.442 79.0066 103.327 78.9951C103.269 78.9894 103.223 78.9878 103.197 78.9873C103.172 78.9867 103.15 78.9868 103.148 78.9868V80.4868C103.148 78.9868 102.312 79.2413 101.76 79.9185L101.758 79.9241L101.757 79.9269L101.756 79.9283L101.756 79.929L101.756 79.9295L101.755 79.9304L101.753 79.9365L101.734 79.9843L101.581 80.367ZM102.935 81.0458C102.34 81.2326 102.085 81.3128 101.975 81.3473C101.975 81.3473 101.975 81.3473 101.975 81.3473L102.935 81.0458ZM101.804 80.9822C101.802 80.9759 101.801 80.9723 101.801 80.9721C101.801 80.9719 101.802 80.975 101.804 80.9822Z" fill="#AFD5DF" stroke="#3B6D84" stroke-width="3"/>
<path d="M172.603 111.869H209.141C214.746 111.869 217.879 108.806 218.749 107.936C219.58 107.105 222.42 103.968 222.42 98.5895C222.42 93.5051 220.207 90.8031 219.056 89.3966C219.009 89.3396 218.964 89.2847 218.921 89.2318C217.872 88.011 213.904 83.6984 213.065 82.8592C213.061 82.8554 213.057 82.8511 213.052 82.8463C212.924 82.7205 212.451 82.2523 212.451 81.4488V80.5217L213.18 80.1572C213.189 80.1492 213.199 80.1407 213.209 80.1325L213.21 80.1317C213.326 80.0346 213.744 79.6864 214.388 79.6864H236.5V67.1199H207.654C206.485 67.1199 204.957 67.4386 203.409 67.9852C201.869 68.5294 200.434 69.2555 199.444 69.9792C197.42 71.4582 194.462 74.991 194.462 79.6997C194.462 82.0714 195.184 84.2069 195.934 85.7764C196.306 86.5557 196.677 87.1796 196.951 87.604C197.088 87.8157 197.201 87.9765 197.276 88.0807C197.313 88.1328 197.341 88.1707 197.359 88.1936L197.376 88.2167L197.377 88.2174C197.377 88.2171 197.376 88.2167 196.198 89.1446L172.603 111.869ZM172.603 111.869L172.574 111.868C172.542 111.867 172.49 111.865 172.42 111.861C172.28 111.853 172.07 111.838 171.804 111.809C171.271 111.752 170.523 111.642 169.679 111.432C167.963 111.006 165.995 110.203 164.565 108.736L164.558 108.729L164.551 108.723L154.844 99.0155L154.769 98.9401L154.683 98.8762L153.783 100.076C154.683 98.8762 154.683 98.8759 154.683 98.8757L154.682 98.8753L154.681 98.8744L154.678 98.8725L154.673 98.8684L154.66 98.8589C154.655 98.8555 154.65 98.8519 154.645 98.848C154.639 98.8438 154.632 98.8393 154.626 98.8345C154.6 98.8164 154.565 98.793 154.524 98.7673C154.453 98.7234 154.313 98.6401 154.135 98.5733L154.131 98.5717C154.027 98.5326 153.533 98.3468 152.961 98.561C152.605 98.6946 152.307 98.9531 152.125 99.295C151.962 99.6011 151.934 99.8926 151.934 100.076V111.956H136.131V67.2073H168.021L168.053 67.2083C168.087 67.2096 168.142 67.212 168.217 67.2164C168.367 67.2254 168.595 67.2427 168.886 67.2757C169.47 67.3418 170.303 67.4702 171.275 67.7183C173.229 68.217 175.68 69.1826 177.81 71.0365L177.81 71.0365L177.82 71.0454C182.143 74.7394 182.454 78.923 182.454 81.3613C182.454 83.8143 181.962 88.205 177.882 91.3647L177.865 91.3774L177.798 91.4285C177.738 91.4731 177.652 91.538 177.544 91.6177C177.328 91.7775 177.031 91.9953 176.702 92.2284C176.013 92.7178 175.294 93.197 174.888 93.3999L175.503 94.63C174.888 93.3999 174.888 93.4001 174.887 93.4003L174.887 93.4007L174.885 93.4015L174.882 93.4032L174.874 93.4069L174.858 93.4155C174.846 93.4217 174.833 93.4289 174.817 93.4372C174.788 93.4537 174.751 93.475 174.709 93.501C174.629 93.551 174.516 93.6279 174.396 93.7329C174.219 93.8879 173.709 94.378 173.709 95.1788C173.709 95.6832 173.933 96.4763 174.752 97.0964C175.523 97.68 176.665 97.9906 178.27 97.9906H201.62C202.798 97.9906 203.732 97.0567 203.732 95.8784C203.732 95.4706 203.575 95.1439 203.519 95.0326C203.441 94.8761 203.313 94.6657 203.125 94.4756C203.123 94.4731 203.12 94.4705 203.118 94.468L172.603 111.869ZM200.986 96.5783C200.986 96.5783 200.985 96.5782 200.985 96.5782C200.985 96.5782 200.985 96.5782 201.075 96.4906H201.075L200.986 96.5783ZM215.165 80.7159C215.165 80.7161 215.169 80.7198 215.175 80.7264C215.168 80.7191 215.165 80.7157 215.165 80.7159ZM164.453 86.7092H164.559L164.665 86.6942L164.453 85.2092C164.665 86.6942 164.665 86.694 164.666 86.6939L164.668 86.6937L164.671 86.6933L164.678 86.6922L164.695 86.6895C164.708 86.6875 164.723 86.685 164.74 86.6819C164.775 86.6758 164.82 86.6674 164.872 86.6561C164.977 86.6337 165.116 86.5996 165.279 86.5492C165.599 86.4501 166.038 86.2794 166.488 85.99C167.435 85.3809 168.401 84.2481 168.401 82.4108C168.401 80.6019 167.608 79.3445 166.498 78.6047C165.481 77.9265 164.325 77.7625 163.578 77.7625H154.046V79.2625C154.046 77.7625 154.045 77.7625 154.044 77.7625L154.042 77.7625L154.038 77.7625L154.03 77.7625L154.013 77.7628C154.006 77.763 154 77.7631 153.993 77.7634C153.988 77.7635 153.982 77.7638 153.976 77.764C153.951 77.7652 153.923 77.767 153.892 77.7699C153.832 77.7756 153.76 77.7857 153.679 77.8036C153.522 77.8386 153.306 77.9093 153.082 78.0581C152.549 78.414 152.283 79.0004 152.283 79.6123V84.8594C152.283 85.5622 152.657 86.0377 152.954 86.285C153.097 86.4041 153.234 86.4831 153.334 86.5331C153.386 86.559 153.432 86.5795 153.472 86.5954C153.491 86.6034 153.51 86.6104 153.526 86.6165L153.55 86.625L153.561 86.6288L153.566 86.6305L153.569 86.6314L153.57 86.6318C153.571 86.632 153.571 86.6323 154.046 85.2092L153.571 86.6323L153.802 86.7092H154.046H164.453Z" fill="#AFD5DF" stroke="#3B6D84" stroke-width="3"/>
<path d="M60.9758 78.4581L64.3511 67.2073H64.3647H64.3905H64.4166H64.443H64.4697H64.4967H64.5239H64.5514H64.5792H64.6073H64.6357H64.6643H64.6932H64.7223H64.7517H64.7814H64.8114H64.8416H64.872H64.9028H64.9338H64.965H64.9965H65.0282H65.0602H65.0925H65.125H65.1577H65.1907H65.224H65.2574H65.2912H65.3251H65.3593H65.3937H65.4284H65.4633H65.4984H65.5337H65.5693H65.6051H65.6412H65.6774H65.7139H65.7506H65.7875H65.8246H65.8619H65.8995H65.9373H65.9753H66.0134H66.0518H66.0904H66.1292H66.1682H66.2074H66.2468H66.2864H66.3262H66.3662H66.4064H66.4468H66.4873H66.5281H66.569H66.6102H66.6515H66.693H66.7346H66.7765H66.8185H66.8607H66.9031H66.9456H66.9883H67.0312H67.0743H67.1175H67.1609H67.2044H67.2481H67.292H67.336H67.3802H67.4245H67.469H67.5137H67.5585H67.6034H67.6485H67.6937H67.7391H67.7846H67.8303H67.8761H67.922H67.9681H68.0143H68.0607H68.1071H68.1537H68.2005H68.2473H68.2943H68.3414H68.3887H68.436H68.4835H68.5311H68.5788H68.6266H68.6745H68.7225H68.7707H68.8189H68.8673H68.9158H68.9643H69.013H69.0618H69.1106H69.1596H69.2087H69.2578H69.3071H69.3564H69.4058H69.4553H69.5049H69.5546H69.6044H69.6542H69.7041H69.7541H69.8042H69.8544H69.9046H69.9549H70.0053H70.0557H70.1062H70.1568H70.2074H70.2581H70.3088H70.3596H70.4105H70.4614H70.5124H70.5634H70.6145H70.6657H70.7168H70.7681H70.8193H70.8707H70.922H70.9734H71.0248H71.0763H71.1278H71.1794H71.2309H71.2825H71.3342H71.3858H71.4375H71.4892H71.5409H71.5927H71.6445H71.6963H71.7481H71.7999H71.8517H71.9036H71.9554H72.0073H72.0592H72.111H72.1629H72.2148H72.2667H72.3186H72.3704H72.4223H72.4742H72.526H72.5779H72.6297H72.6816H72.7334H72.7852H72.837H72.8887H72.9405H72.9922H73.0439H73.0956H73.1472H73.1989H73.2505H73.302H73.3535H73.405H73.4565H73.5079H73.5593H73.6107H73.662H73.7132H73.7644H73.8156H73.8667H73.9178H73.9688H74.0198H74.0707H74.1215H74.1723H74.2231H74.2737H74.3243H74.3749H74.4254H74.4758H74.5262H74.5764H74.6266H74.6768H74.7268H74.7768H74.8267H74.8765H74.9263H74.9759H75.0255H75.075H75.1244H75.1737H75.2229H75.272H75.3211H75.37H75.4189H75.4676H75.5162H75.5648H75.6132H75.6616H75.7098H75.7579H75.8059H75.8538H75.9016H75.9493H75.9968H76.0442H76.0916H76.1388H76.1858H76.2328H76.2796H76.3263H76.3729H76.4193H76.4656H76.5118H76.5578H76.6037H76.6495H76.6951H76.7406H76.7859H76.8311H76.8762H76.9211H76.9658H77.0104H77.0549H77.0992H77.1433H77.1873H77.2311H77.2748H77.3183H77.3616H77.4048H77.4478H77.4907H77.5333H77.5758H77.6182H77.6603H77.7023H77.7441H77.7857H77.8271H77.8684H77.9095H77.9504H77.9911H78.0316H78.0719H78.112H78.152H78.1917H78.2313H78.2706H78.3098H78.3487H78.3875H78.426H78.4643H78.5025H78.5404H78.5781H78.6156H78.6529H78.6899H78.7268H78.7634H78.7998H78.836H78.872H78.9077H78.9433H78.9785H79.0136H79.0484H79.083H79.1174H79.1515H79.1854H79.2191H79.2525H79.2856H79.3186H79.3417L65.7512 111.956H65.7425H65.719H65.6953H65.6714H65.6471H65.6227H65.5979H65.573H65.5478H65.5223H65.4966H65.4707H65.4445H65.4181H65.3915H65.3646H65.3375H65.3102H65.2826H65.2548H65.2268H65.1985H65.1701H65.1414H65.1124H65.0833H65.0539H65.0244H64.9946H64.9646H64.9343H64.9039H64.8733H64.8424H64.8113H64.7801H64.7486H64.7169H64.685H64.653H64.6207H64.5882H64.5555H64.5227H64.4896H64.4564H64.4229H64.3893H64.3555H64.3214H64.2873H64.2529H64.2183H64.1836H64.1486H64.1135H64.0783H64.0428H64.0072H63.9714H63.9354H63.8993H63.863H63.8265H63.7898H63.753H63.7161H63.6789H63.6416H63.6042H63.5666H63.5288H63.4909H63.4528H63.4146H63.3762H63.3377H63.299H63.2602H63.2213H63.1822H63.1429H63.1035H63.064H63.0243H62.9845H62.9446H62.9045H62.8643H62.824H62.7835H62.743H62.7022H62.6614H62.6204H62.5793H62.5381H62.4968H62.4554H62.4138H62.3721H62.3303H62.2884H62.2464H62.2043H62.162H62.1197H62.0773H62.0347H61.9921H61.9493H61.9065H61.8635H61.8204H61.7773H61.7341H61.6907H61.6473H61.6038H61.5602H61.5165H61.4727H61.4289H61.3849H61.3409H61.2968H61.2526H61.2083H61.164H61.1196H61.0751H61.0305H60.9859H60.9412H60.8964H60.8516H60.8067H60.7617H60.7167H60.6716H60.6265H60.5813H60.536H60.4907H60.4453H60.3999H60.3544H60.3089H60.2633H60.2177H60.1721H60.1264H60.0806H60.0348H59.989H59.9431H59.8972H59.8513H59.8053H59.7593H59.7133H59.6672H59.6211H59.575H59.5288H59.4827H59.4365H59.3902H59.344H59.2977H59.2515H59.2052H59.1589H59.1125H59.0662H59.0199H58.9735H58.9272H58.8808H58.8344H58.7881H51.7561L46.7206 95.2814C46.644 94.9125 46.4502 94.6246 46.2608 94.4352C46.0175 94.1919 45.6115 93.9412 45.0799 93.9412C44.5483 93.9412 44.1423 94.1919 43.899 94.4352C43.7108 94.6234 43.5182 94.9089 43.4406 95.2746L38.2949 111.956H24.579L10.7129 67.1199H26.9392L30.2318 78.3632C30.3071 78.7368 30.5026 79.028 30.6937 79.219C30.937 79.4624 31.343 79.713 31.8746 79.713C32.4061 79.713 32.8121 79.4624 33.0555 79.219C33.2494 79.0251 33.448 78.7278 33.5207 78.3459L36.6257 67.1199H54.154L57.6961 78.4708C57.7742 78.8347 57.9662 79.1189 58.1537 79.3065C58.3971 79.5498 58.8031 79.8005 59.3346 79.8005C59.8662 79.8005 60.2722 79.5498 60.5155 79.3065C60.7053 79.1168 60.8995 78.8281 60.9758 78.4581ZM81.1103 66.5457C81.1103 66.3921 81.1103 66.2028 81.1103 65.9697V66.5456L81.1103 66.5457ZM66.6806 111.956V113.063C66.6806 111.956 66.6806 111.956 66.6805 111.956C66.6805 111.956 66.6806 111.956 66.6806 111.956Z" fill="#AFD5DF" stroke="#3B6D84" stroke-width="3"/>
<path d="M40.7072 33.5247L41.8833 32.5937C41.8845 32.5952 41.8857 32.5967 41.8869 32.5982C42.6726 33.5899 44.0919 35.1387 45.3515 36.4749C45.9749 37.1363 46.5473 37.7331 46.9638 38.1646C47.172 38.3802 47.3411 38.5543 47.4579 38.6743L47.5922 38.8121L47.6268 38.8475L47.6352 38.8562C47.8229 39.0462 47.9502 39.2564 48.0284 39.4128C48.0841 39.5241 48.2414 39.8507 48.2414 40.2586C48.2414 41.4368 47.3075 42.3707 46.1293 42.3707H46.1283H46.1265H46.1238H46.1203H46.1159H46.1107H46.1046H46.0977H46.0899H46.0813H46.0718H46.0616H46.0505H46.0385H46.0258H46.0122H45.9978H45.9826H45.9666H45.9498H45.9322H45.9138H45.8946H45.8746H45.8538H45.8323H45.8099H45.7868H45.7629H45.7383H45.7128H45.6867H45.6597H45.632H45.6035H45.5743H45.5444H45.5137H45.4822H45.4501H45.4171H45.3835H45.3491H45.3141H45.2783H45.2417H45.2045H45.1666H45.1279H45.0886H45.0485H45.0078H44.9663H44.9242H44.8814H44.8379H44.7937H44.7489H44.7034H44.6572H44.6103H44.5628H44.5146H44.4658H44.4163H44.3662H44.3154H44.264H44.212H44.1593H44.106H44.052H43.9975H43.9423H43.8865H43.8301H43.773H43.7154H43.6572H43.5983H43.5389H43.4789H43.4182H43.357H43.2952H43.2329H43.1699H43.1064H43.0423H42.9777H42.9125H42.8467H42.7803H42.7135H42.646H42.578H42.5095H42.4405H42.3709H42.3007H42.2301H42.1589H42.0872H42.0149H41.9422H41.8689H41.7952H41.7209H41.6461H41.5709H41.4951H41.4189H41.3421H41.2649H41.1872H41.109H41.0303H40.9512H40.8716H40.7915H40.711H40.63H40.5486H40.4667H40.3843H40.3016H40.2183H40.1347H40.0506H39.9661H39.8811H39.7957H39.71H39.6237H39.5371H39.4501H39.3626H39.2748H39.1866H39.0979H39.0089H38.9195H38.8296H38.7395H38.6489H38.5579H38.4666H38.3749H38.2829H38.1904H38.0977H38.0045H37.911H37.8172H37.723H37.6285H37.5336H37.4385H37.3429H37.2471H37.1509H37.0544H36.9576H36.8604H36.763H36.6652H36.5672H36.4688H36.3701H36.2712H36.1719H36.0724H35.9726H35.8725H35.7721H35.6714H35.5705H35.4693H35.3679H35.2662H35.1642H35.062H34.9595H34.8568H34.7538H34.6506H34.5472H34.4435H34.3396H34.2354H34.1311H34.0265H33.9217H33.8167H33.7115H33.6061H33.5004H33.3946H33.2886H33.1824H33.076H32.9694H32.8626H32.7557H32.6486H32.5413H32.4338H32.3262H32.2184H32.1104H32.0023H31.894H31.7856H31.6771H31.5684H31.4596H31.3506H31.2415H31.1323H31.0229H30.9134H30.8038H30.6941H30.5843H30.4744H30.3644H30.2542H30.144H30.0337H29.9233H29.8128H29.7022H29.5915H29.4808H29.37H29.2591H29.1481H29.0371H28.926H28.8149H28.7037H28.5925H28.4812H28.3699H28.2585H28.1471H28.0357H27.9242H27.8127H27.7012H27.5897H27.4781H27.3666H27.255H27.1434H27.0318H26.9203H26.8087H26.6971H26.5856H26.474H26.3625H26.251H26.1395H26.0281H25.9167H25.8053H25.694H25.5826H25.4714H25.3602H25.249H25.1379H25.0269H24.9159H24.805H24.6942H24.5834H24.4727H24.3621H24.2515H24.1411H24.0307H23.9205H23.8103H23.7002H23.5903H23.4804H23.3706H23.261H23.1515H23.0421H22.9328H22.8236H22.7146H22.6057H22.497H22.3884H22.2799H22.1716H22.0634H21.9554H21.8475H21.7398H21.6323H21.5249H21.4177H21.3107H21.2039H21.0972H20.9907H20.8844H20.7783H20.6724H20.5667H20.4612H20.3559H20.2508H20.1459H20.0413H19.9368H19.8326H19.7286H19.6248H19.5213H19.418H19.3149H19.2121H19.1095H19.0072H18.9051H18.8033H18.7017H18.6004H18.4994H18.3986H18.2982H18.1979H18.098H17.9984H17.899H17.7999H17.7011H17.6026H17.5045H17.4066H17.309H17.2117H17.1148H17.0182H16.9218H16.8258H16.7302H16.6348H16.5399H16.4452H16.3509H16.2569H16.1633H16.07H15.9771H15.8845H15.7923H15.7004H15.609H15.5179H15.4271H15.3368H15.2468H15.1572H15.068H14.9792H14.8908H14.8028H14.7152H14.628H14.5412H14.4548H14.3689H14.2833H14.1982H14.1135H14.0292H13.9454H13.862H13.779H13.6965H13.6144H13.5328H13.4516H13.3709H13.2907H13.2109H13.1316H13.0527H12.9743H12.8964H12.819H12.742H12.6656H12.5896H12.5142H12.4392H12.3647H12.2907H12.2173H12.1443H12.0719H12H11.9286H11.8577H11.7873H11.7175H11.6482H11.5795H11.5113H11.4436H11.3765H11.3099H11.2439H11.1785H11.1136H11.0493H10.9855H10.9223H10.8597H10.7977H10.7363H10.6754H10.6151H10.5554H10.4964H10.4379H10.38H10.3227H10.2661H10.21H10.1546H10.0997H10.0455H9.99197H9.93902H9.88671H9.83504H9.78401H9.73362H9.68387H9.63478H9.58634H9.53856H9.5V56.249H53.8251C59.4309 56.249 62.5632 53.1862 63.4336 52.3158C64.2591 51.4903 67.1046 48.2647 67.1046 42.9696C67.1046 37.8852 64.8919 35.1832 63.7401 33.7768C63.6934 33.7197 63.6484 33.6648 63.6054 33.612C62.6071 32.4504 58.9027 28.5002 57.8617 27.4404C57.6421 27.2819 57.4084 27.0417 57.2641 26.6811C57.1766 26.4623 57.1518 26.2685 57.1425 26.1521C57.1347 26.0544 57.1349 25.9591 57.135 25.9239L57.135 25.9163C57.135 25.6238 57.1993 25.2806 57.3589 24.9613C57.4919 24.6954 57.9488 23.9791 58.8973 23.9791H81.0228H82.5228V25.4791V56.249H96.4886V25.5665V24.0665H97.9886H117.127V11.5H52.1635C50.9481 11.5 49.4198 11.8198 47.8891 12.3643C46.3645 12.9066 44.9485 13.6322 43.9535 14.3594C41.9296 15.8383 38.9715 19.3711 38.9715 24.0798C38.9715 26.4516 39.6937 28.587 40.443 30.1565C40.8151 30.9358 41.1863 31.5598 41.4609 31.9841C41.5979 32.1958 41.7101 32.3566 41.7852 32.4609C41.8228 32.513 41.8509 32.5508 41.8682 32.5737L41.8858 32.5968L41.8864 32.5976C41.8861 32.5972 41.8858 32.5969 40.7072 33.5247ZM40.7072 33.5247C42.0087 35.1687 44.866 38.1539 46.0435 39.3707L40.7072 33.5247ZM45.4949 40.9583C45.4949 40.9583 45.495 40.9584 45.5845 40.8707H45.5845L45.495 40.9584C45.495 40.9584 45.4949 40.9583 45.4949 40.9583Z" fill="#AFD5DF" stroke="#3B6D84" stroke-width="3"/>
<path d="M235.626 56.249H208.546L208.517 56.2481C208.485 56.247 208.433 56.2448 208.363 56.2409C208.223 56.2329 208.013 56.2178 207.747 56.1893C207.214 56.1321 206.466 56.0221 205.622 55.8123C203.906 55.386 201.938 54.5834 200.508 53.1163L200.501 53.1095L200.494 53.1028L190.787 43.3956L190.712 43.3202L190.626 43.2563L189.726 44.4563C190.626 43.2563 190.626 43.2561 190.626 43.2559L190.625 43.2554L190.624 43.2545L190.621 43.2527L190.616 43.2486L190.603 43.239C190.593 43.232 190.582 43.2238 190.569 43.2146C190.543 43.1965 190.508 43.1732 190.467 43.1474C190.396 43.1035 190.256 43.0202 190.078 42.9534L190.074 42.9518C189.97 42.9128 189.476 42.7269 188.904 42.9411C188.548 43.0747 188.25 43.3332 188.068 43.6751C187.905 43.9812 187.876 44.2727 187.876 44.4563V56.249H172.074V11.5H203.876L203.907 11.501C203.941 11.5022 203.996 11.5047 204.071 11.5092C204.22 11.5183 204.447 11.5358 204.737 11.5693C205.317 11.6365 206.146 11.7671 207.11 12.0195C209.049 12.5271 211.472 13.5097 213.556 15.397L213.567 15.4069L213.578 15.4166C217.833 19.1203 218.222 23.3236 218.222 25.7414C218.222 28.2771 217.733 32.5833 213.651 35.7446L213.65 35.7447L213.633 35.7575L213.566 35.8086C213.506 35.8532 213.42 35.9181 213.312 35.9978C213.096 36.1576 212.799 36.3754 212.47 36.6085C211.781 37.0979 211.062 37.5771 210.656 37.78L211.327 39.1217C210.656 37.78 210.656 37.7802 210.655 37.7804L210.655 37.7808L210.653 37.7816L210.65 37.7834L210.642 37.7871L210.626 37.7956C210.614 37.8018 210.601 37.809 210.586 37.8174C210.556 37.8339 210.519 37.8551 210.477 37.8811C210.397 37.9311 210.284 38.008 210.164 38.113C209.987 38.268 209.477 38.7581 209.477 39.5589C209.477 40.0633 209.701 40.8564 210.52 41.4765C211.291 42.0601 212.433 42.3707 214.038 42.3707H235.626V56.249ZM200.308 31.0894H200.415L200.52 31.0743L200.308 29.5894C200.52 31.0743 200.521 31.0742 200.522 31.0741L200.523 31.0738L200.527 31.0734L200.534 31.0723L200.551 31.0695C200.564 31.0675 200.58 31.0649 200.598 31.0617C200.633 31.0555 200.678 31.0468 200.731 31.0353C200.837 31.0123 200.978 30.9774 201.142 30.9256C201.466 30.8235 201.907 30.6476 202.359 30.3489C203.315 29.7176 204.257 28.5609 204.257 26.7034C204.257 24.8945 203.463 23.6371 202.354 22.8974C201.336 22.2192 200.181 22.0551 199.434 22.0551H189.901H189.658L189.427 22.1321L189.901 23.5551C189.427 22.1321 189.426 22.1324 189.425 22.1327L189.424 22.1332L189.42 22.1344L189.413 22.1367L189.399 22.1418C189.389 22.1452 189.379 22.149 189.368 22.153C189.347 22.161 189.324 22.1703 189.299 22.1809C189.25 22.2019 189.193 22.2289 189.132 22.263C189.01 22.3305 188.859 22.4322 188.709 22.5819C188.381 22.9099 188.139 23.3937 188.139 23.9924V29.2395C188.139 29.9424 188.513 30.4178 188.81 30.6652C188.953 30.7842 189.089 30.8632 189.189 30.9132C189.241 30.9391 189.288 30.9596 189.327 30.9755C189.347 30.9835 189.365 30.9905 189.382 30.9966L189.406 31.0051L189.417 31.0089L189.422 31.0107L189.424 31.0115L189.426 31.012C189.426 31.0122 189.427 31.0124 189.901 29.5894L189.427 31.0124L189.658 31.0894H189.901H200.308Z" fill="#AFD5DF" stroke="#3B6D84" stroke-width="3"/>
<path d="M138.739 24.9741C138.36 24.855 138.36 24.8551 138.36 24.8551L138.36 24.8555L138.359 24.8572L138.357 24.8637L138.349 24.8894L138.317 24.9897L138.198 25.3702L137.772 26.7289C137.419 27.8536 136.949 29.3544 136.479 30.8579C136.009 32.3612 135.538 33.8682 135.185 35.0053C135.009 35.5735 134.861 36.051 134.758 36.39C134.706 36.5589 134.664 36.6966 134.635 36.7949C134.621 36.8431 134.608 36.8874 134.597 36.9232C134.593 36.9398 134.586 36.9638 134.58 36.989C134.577 37.0003 134.571 37.0244 134.564 37.0539C134.561 37.0681 134.556 37.0956 134.55 37.1304L134.55 37.1323C134.546 37.1517 134.53 37.2493 134.53 37.3726C134.53 37.8186 134.674 38.2781 134.967 38.6543C135.272 39.0467 135.79 39.3973 136.468 39.3973H143.464H143.707L143.938 39.3204C144.485 39.1379 144.814 38.7735 144.996 38.4998C145.083 38.3692 145.145 38.2485 145.182 38.1723C145.2 38.1345 145.217 38.0976 145.227 38.0777L145.239 38.0521L145.242 38.0455C145.242 38.044 145.243 38.0434 145.243 38.0434L145.401 37.7267V37.3726C145.401 37.2493 145.385 37.1517 145.382 37.1323L145.382 37.1304C145.376 37.0956 145.37 37.0681 145.367 37.0539C145.361 37.0244 145.355 37.0003 145.352 36.989C145.345 36.9638 145.339 36.9398 145.334 36.9232C145.324 36.8874 145.311 36.8431 145.297 36.7949C145.267 36.6966 145.226 36.5589 145.174 36.39C145.07 36.051 144.922 35.5735 144.746 35.0053C144.393 33.8682 143.923 32.3612 143.453 30.8579C142.982 29.3544 142.512 27.8536 142.16 26.7289L141.733 25.3702L141.614 24.9897L141.594 24.9246C141.538 24.6681 141.454 24.3954 141.307 24.1498C141.22 24.0052 141.078 23.8141 140.853 23.6532C140.737 23.5705 140.6 23.4969 140.444 23.4448C140.366 23.4189 140.287 23.3993 140.206 23.3862C140.165 23.3796 140.125 23.3748 140.085 23.3716C140.065 23.37 140.045 23.3689 140.025 23.3681L139.995 23.3672L139.98 23.367L139.973 23.3669C139.969 23.3669 139.966 23.3669 139.966 24.8669L139.791 25.3042M138.739 24.9741C138.835 25.2005 138.961 25.3845 139.095 25.5134C139.128 25.546 139.163 25.575 139.197 25.6003M138.739 24.9741C138.739 24.9741 138.739 24.9741 138.739 24.9741M138.739 24.9741C138.95 25.0404 139.279 25.1436 139.791 25.3042M139.197 25.6003L138.762 25.737C138.762 25.737 138.762 25.737 138.762 25.7371C138.819 25.7189 138.941 25.6807 139.197 25.6003M139.197 25.6003L139.753 25.426M139.197 25.6003C139.197 25.6003 139.197 25.6003 139.197 25.6003M139.197 25.6003C139.363 25.7219 139.533 25.758 139.671 25.6862C139.705 25.5772 139.733 25.4897 139.753 25.426M139.197 25.6003C139.338 25.5562 139.519 25.4993 139.753 25.426M139.753 25.426C139.758 25.4084 139.763 25.3927 139.767 25.3788C139.783 25.3299 139.791 25.3042 139.791 25.3042M139.791 25.3042L138.739 24.9741M138.739 24.9741C138.724 24.9393 138.71 24.9034 138.697 24.8666C138.637 24.7014 138.592 24.517 138.57 24.3174L138.551 24.3645L138.398 24.7471L138.377 24.8003L138.36 24.855L138.739 24.9741ZM127.394 11.5H151.58L152.013 12.8926L153.658 18.1951C155.021 22.5842 156.838 28.4382 158.658 34.2976C160.478 40.157 162.301 46.0222 163.675 50.4335C164.361 52.6391 164.936 54.4818 165.342 55.7788C165.404 55.9777 165.462 56.1638 165.516 56.3365H151.23L149.48 50.8595C149.384 50.3548 149.075 49.9723 148.734 49.7453C148.367 49.5007 147.972 49.4278 147.662 49.4278H132.008C131.64 49.4278 131.227 49.5304 130.863 49.8221C130.552 50.0709 130.39 50.3709 130.316 50.5193L130.264 50.6231L130.229 50.7337L128.439 56.3365H113.862C113.913 56.1667 113.968 55.9835 114.026 55.7876C114.413 54.4983 114.967 52.6607 115.631 50.4574C116.959 46.051 118.73 40.1838 120.501 34.3191C122.271 28.4544 124.042 22.5924 125.371 18.1966L126.975 12.8855L127.394 11.5ZM138.65 25.5164C138.651 25.5163 138.651 25.5185 138.653 25.5234C138.651 25.5189 138.65 25.5165 138.65 25.5164Z" fill="#AFD5DF" stroke="#3B6D84" stroke-width="3"/>
</g>
</g>
<defs>
<filter id="filter0_dd" x="0" y="0" width="246" height="123.456" filterUnits="userSpaceOnUse" color-interpolation-filters="sRGB">
<feFlood flood-opacity="0" result="BackgroundImageFix"/>
<feColorMatrix in="SourceAlpha" type="matrix" values="0 0 0 0 0 0 0 0 0 0 0 0 0 0 0 0 0 0 127 0"/>
<feOffset dy="2"/>
<feGaussianBlur stdDeviation="4"/>
<feColorMatrix type="matrix" values="0 0 0 0 0.702187 0 0 0 0 0.852997 0 0 0 0 0.891667 0 0 0 1 0"/>
<feBlend mode="normal" in2="BackgroundImageFix" result="effect1_dropShadow"/>
<feColorMatrix in="SourceAlpha" type="matrix" values="0 0 0 0 0 0 0 0 0 0 0 0 0 0 0 0 0 0 127 0"/>
<feOffset dy="-2"/>
<feGaussianBlur stdDeviation="4"/>
<feColorMatrix type="matrix" values="0 0 0 0 0.702187 0 0 0 0 0.852997 0 0 0 0 0.891667 0 0 0 1 0"/>
<feBlend mode="normal" in2="effect1_dropShadow" result="effect2_dropShadow"/>
<feBlend mode="normal" in="SourceGraphic" in2="effect2_dropShadow" result="shape"/>
</filter>
<clipPath id="clip0">
<rect x="8" y="10" width="230" height="103.456" fill="white"/>
</clipPath>
</defs>
</svg>
